<?xml version="1.0" encoding="utf-8"?>
<!-- Generator: Adobe Illustrator 16.0.0, SVG Export Plug-In . SVG Version: 6.00 Build 0)  -->
<!DOCTYPE svg PUBLIC "-//W3C//DTD SVG 1.1//EN" "http://www.w3.org/Graphics/SVG/1.1/DTD/svg11.dtd">
<svg version="1.1" id="Layer_1" xmlns="http://www.w3.org/2000/svg" xmlns:xlink="http://www.w3.org/1999/xlink" x="0px" y="0px"
	 width="612px" height="792px" viewBox="4.013 17 612 792" enable-background="new 4.013 17 612 792" xml:space="preserve">
<path fill="#E9D718" d="M119.846,365.295c-4.927,7.939-9.643,16.039-14.147,24.298c-4.507,8.262-8.46,16.407-11.863,24.436
	c-3.402,8.031-6.125,15.763-8.167,23.191c-2.042,7.432-3.063,14.33-3.063,20.699c0,2.4,0.292,4.107,0.875,5.122
	c0.584,1.017,1.361,1.523,2.334,1.523c1.88,0,4.342-1.476,7.39-4.431c3.047-2.953,6.189-6.784,9.432-11.492
	c1.036-1.568,2.123-3.253,3.258-5.053c1.134-1.801,2.236-3.6,3.306-5.4c1.07-1.799,2.042-3.482,2.917-5.053
	c0.876-1.568,1.604-2.86,2.188-3.877l0.777,0.692c-1.492,2.769-3.193,5.884-5.104,9.345c-1.913,3.462-4.424,7.408-7.536,11.838
	c-3.306,4.708-6.597,8.633-9.869,11.769c-3.274,3.14-6.563,4.708-9.869,4.708c-1.621,0-2.966-0.37-4.035-1.107
	c-1.07-0.738-1.913-1.731-2.528-2.978c-0.617-1.246-1.055-2.652-1.312-4.223c-0.26-1.568-0.39-3.229-0.39-4.983
	c0-5.629,0.647-11.053,1.945-16.27c1.296-5.213,2.819-10.176,4.57-14.883H67.339c-2.659,4.43-5.624,9.186-8.897,14.26
	c-3.273,5.078-6.791,9.762-10.55,14.054c-3.76,4.292-7.715,7.87-11.862,10.73c-4.149,2.861-8.46,4.292-12.933,4.292
	c-1.944,0-3.809-0.323-5.591-0.97c-1.782-0.645-3.387-1.638-4.813-2.977c-1.425-1.337-2.56-3.022-3.403-5.054
	c-0.842-2.029-1.264-4.476-1.264-7.338c0-2.676,0.52-5.123,1.556-7.338c1.038-2.215,2.594-3.322,4.667-3.322
	c1.298,0,2.399,0.577,3.307,1.73c0.908,1.154,1.361,2.561,1.361,4.223c0,2.492-0.519,4.291-1.556,5.399
	c-1.036,1.107-2.397,1.661-4.084,1.661c0,1.938,0.325,3.693,0.972,5.262c0.649,1.57,1.459,2.861,2.432,3.876
	c0.972,1.018,2.075,1.8,3.306,2.354c1.23,0.554,2.431,0.83,3.598,0.83c2.917,0,5.785-0.714,8.605-2.146
	c2.819-1.431,5.591-3.345,8.313-5.746c2.723-2.399,5.348-5.168,7.876-8.308c2.528-3.137,4.959-6.368,7.293-9.691
	c2.333-3.322,4.536-6.667,6.611-10.037c2.074-3.369,3.987-6.438,5.737-9.207c3.564-5.723,7.275-11.375,11.134-16.961
	c3.855-5.584,7.891-10.845,12.105-15.784c4.213-4.937,8.637-9.367,13.272-13.292c4.634-3.922,9.513-6.992,14.634-9.207
	L119.846,365.295z M81.535,421.506c3.63-9.137,7.745-17.812,12.349-26.028c4.603-8.214,9.627-15.922,15.071-23.122l-0.194-0.277
	c-7.649,5.724-14.699,12.831-21.148,21.321c-6.451,8.493-12.852,17.86-19.204,28.105H81.535z"/>
<path fill="#E9D718" d="M95.634,466.227c3.306-8.121,6.661-16.199,10.063-24.229c3.403-8.031,6.79-16.199,10.161-24.507
	l11.085-0.554l-12.835,25.752l0.194,0.277c2.463-4.338,4.651-7.822,6.563-10.453c1.911-2.631,3.581-4.777,5.008-6.438
	c1.425-1.661,2.625-2.929,3.598-3.808c0.973-0.876,1.685-1.637,2.14-2.284c0.712-1.015,1.376-1.821,1.993-2.423
	c0.615-0.6,1.345-1.061,2.188-1.385c0.842-0.322,1.862-0.529,3.062-0.623c1.199-0.091,2.706-0.184,4.521-0.277
	c-1.231,2.492-2.366,5.102-3.403,7.823c-1.037,2.724-1.556,5.655-1.556,8.792c0,3.969,1.394,5.953,4.182,5.953
	c0.907,0,1.799-0.277,2.674-0.83c0.875-0.555,1.701-1.246,2.479-2.077s1.522-1.731,2.236-2.7c0.713-0.969,1.361-1.869,1.944-2.699
	l0.39,0.691c-1.815,3.232-3.955,5.863-6.418,7.893c-2.464,2.031-5.153,3.045-8.07,3.045c-2.594,0-4.636-0.969-6.126-2.906
	c-1.492-1.939-2.236-4.799-2.236-8.584c0-2.4,0.486-4.66,1.459-6.785l-0.195-0.276c-2.722,2.585-5.315,5.585-7.778,8.999
	c-2.464,3.416-4.749,7.016-6.855,10.799c-2.106,3.787-4.052,7.685-5.834,11.699c-1.783,4.016-3.388,7.916-4.812,11.7L95.634,466.227
	z"/>
<path fill="#E9D718" d="M179.741,418.322l10.113-0.831c-0.584,1.661-1.427,3.669-2.528,6.022c-1.104,2.354-2.302,4.894-3.598,7.615
	c-1.298,2.724-2.61,5.538-3.938,8.445c-1.329,2.908-2.545,5.725-3.646,8.445c-1.103,2.725-1.993,5.262-2.674,7.615
	s-1.021,4.361-1.021,6.022c0,2.309,0.81,3.462,2.431,3.462c1.556,0,3.661-1.292,6.32-3.877c2.657-2.583,5.445-5.999,8.362-10.246
	c1.23-1.752,2.479-3.645,3.743-5.676c1.265-2.029,2.479-4.037,3.646-6.023c1.167-1.982,2.236-3.828,3.209-5.537
	c0.973-1.707,1.75-3.115,2.333-4.223l0.681,0.553c-1.686,3.232-3.631,6.809-5.834,10.73c-2.204,3.924-4.861,8.1-7.973,12.53
	c-3.112,4.431-6.175,8.054-9.189,10.868c-3.014,2.814-6.013,4.223-8.994,4.223c-2.075,0-3.68-0.761-4.812-2.284
	c-1.136-1.522-1.702-3.392-1.702-5.607c0-0.737,0.032-1.43,0.098-2.077c0.063-0.645,0.161-1.152,0.291-1.522h-0.194
	c-2.01,3.231-4.278,5.953-6.806,8.169c-2.528,2.215-5.251,3.322-8.168,3.322c-1.556,0-2.886-0.415-3.987-1.246
	c-1.103-0.83-1.993-1.96-2.674-3.392c-0.681-1.43-1.184-3.046-1.507-4.846s-0.486-3.669-0.486-5.607
	c0-4.521,0.875-9.045,2.625-13.568c1.751-4.521,3.954-8.606,6.612-12.253c2.657-3.646,5.623-6.598,8.897-8.861
	c3.272-2.261,6.4-3.393,9.383-3.393c2.269,0,4.051,0.693,5.348,2.078c1.296,1.384,2.366,3.554,3.209,6.506L179.741,418.322z
	 M150.571,453.766c0,2.678,0.307,5.008,0.924,6.992c0.615,1.985,1.928,2.977,3.938,2.977c1.361-0.091,2.786-0.899,4.278-2.423
	c1.49-1.522,2.933-3.438,4.327-5.745c1.394-2.307,2.723-4.868,3.986-7.685c1.265-2.815,2.366-5.653,3.307-8.515
	c0.938-2.86,1.685-5.561,2.236-8.1c0.55-2.538,0.826-4.684,0.826-6.438c0-2.492-0.325-4.431-0.973-5.815
	c-0.648-1.384-1.912-2.076-3.792-2.076c-1.492,0-2.999,0.646-4.521,1.938c-1.523,1.294-2.982,3.001-4.375,5.122
	c-1.396,2.125-2.723,4.5-3.987,7.131c-1.264,2.631-2.35,5.33-3.257,8.1c-0.909,2.77-1.621,5.424-2.14,7.961
	C150.829,449.729,150.571,451.92,150.571,453.766z"/>
<path fill="#E9D718" d="M236.04,369.864c-4.667,10.154-8.864,19.175-12.592,27.068c-3.729,7.891-7.018,14.814-9.869,20.768
	c-2.854,5.953-5.284,11.123-7.293,15.506c-2.01,4.386-3.646,8.217-4.91,11.492c-1.264,3.277-2.188,6.115-2.771,8.515
	c-0.583,2.401-0.875,4.616-0.875,6.646c0,1.848,0.355,3.462,1.07,4.846c0.712,1.385,1.75,2.077,3.111,2.077
	c1.75,0,3.483-0.737,5.202-2.215c1.717-1.476,3.354-3.393,4.91-5.746s2.998-4.96,4.327-7.823c1.328-2.859,2.479-5.697,3.452-8.514
	c0.972-2.814,1.733-5.445,2.284-7.893c0.551-2.444,0.827-4.361,0.827-5.746c0-0.46-0.049-0.852-0.146-1.176
	c-0.097-0.322-0.211-0.693-0.34-1.107c-0.131-0.416-0.243-0.945-0.341-1.593c-0.097-0.645-0.146-1.522-0.146-2.631
	c0-1.752,0.404-3.368,1.216-4.846c0.81-1.476,1.862-2.216,3.16-2.216c1.102,0,2.008,0.347,2.723,1.039
	c0.712,0.692,1.278,1.592,1.701,2.699c0.421,1.108,0.713,2.332,0.875,3.67c0.161,1.339,0.243,2.654,0.243,3.945
	c0,2.031-0.194,4.247-0.583,6.646c0.777,1.107,1.847,2.146,3.208,3.115c1.361,0.969,2.787,1.453,4.278,1.453
	c2.203,0,4.165-0.738,5.883-2.215c1.717-1.476,3.225-3.414,4.521-5.815l0.681,0.831c-1.297,2.678-2.934,4.824-4.91,6.438
	c-1.979,1.616-4.035,2.424-6.175,2.424c-1.556,0-2.965-0.416-4.229-1.246c-1.264-0.832-2.447-1.891-3.549-3.186
	c-0.973,4.801-2.431,9.231-4.376,13.292c-1.944,4.062-4.229,7.569-6.854,10.522c-2.626,2.955-5.527,5.285-8.703,6.992
	c-3.177,1.706-6.482,2.561-9.918,2.561c-3.631,0-6.337-1.339-8.119-4.015s-2.674-6.276-2.674-10.8c0-1.475,0.18-3.091,0.535-4.846
	c0.356-1.752,1.006-3.922,1.944-6.507c0.939-2.583,2.22-5.792,3.841-9.622c1.62-3.83,3.71-8.561,6.271-14.191
	c2.561-5.629,5.655-12.368,9.286-20.215c3.63-7.844,7.908-17.075,12.835-27.69L236.04,369.864z"/>
<path fill="#E9D718" d="M262.292,417.491c-3.047,6.832-5.673,12.669-7.876,17.515c-2.204,4.846-4.003,8.978-5.396,12.391
	c-1.395,3.416-2.431,6.209-3.111,8.377c-0.681,2.17-1.021,3.945-1.021,5.33c0,1.108,0.146,2.008,0.438,2.7
	c0.291,0.692,0.729,1.038,1.312,1.038c1.296,0,3.127-1.06,5.494-3.185c2.365-2.122,5.331-5.767,8.896-10.938
	c1.425-2.122,2.82-4.223,4.182-6.3c1.361-2.076,2.64-4.084,3.841-6.022c1.198-1.938,2.268-3.69,3.208-5.261
	c0.939-1.568,1.702-2.814,2.285-3.738l0.875,0.83c-0.777,1.479-1.734,3.163-2.868,5.054c-1.135,1.894-2.351,3.877-3.646,5.954
	c-1.297,2.076-2.625,4.131-3.986,6.16c-1.361,2.031-2.69,3.971-3.986,5.815c-3.761,5.354-6.986,9.093-9.676,11.215
	c-2.69,2.122-5.17,3.185-7.438,3.185c-2.139,0-3.792-0.831-4.959-2.492c-1.166-1.662-1.75-3.829-1.75-6.508
	c0-1.845,0.243-3.76,0.729-5.746c0.486-1.982,1.312-4.451,2.479-7.406c1.167-2.953,2.723-6.622,4.667-11.008
	c1.945-4.383,4.376-9.806,7.293-16.268L262.292,417.491z M267.932,386.755c1.231,0,2.317,0.647,3.258,1.938
	c0.938,1.293,1.41,2.816,1.41,4.569c0,1.847-0.52,3.531-1.556,5.053c-1.038,1.522-2.205,2.284-3.501,2.284
	c-1.427,0-2.658-0.529-3.694-1.592c-1.038-1.061-1.557-2.652-1.557-4.776c0-2.123,0.567-3.898,1.702-5.331
	C265.128,387.471,266.44,386.755,267.932,386.755z"/>
<path fill="#E9D718" d="M314.896,430.506c-2.4,4.153-4.994,8.469-7.779,12.945c-2.789,4.479-5.785,8.562-8.994,12.253
	c-3.209,3.692-6.646,6.739-10.308,9.138c-3.662,2.399-7.535,3.6-11.619,3.6c-3.89,0-6.872-1.501-8.945-4.499
	c-2.076-2.999-3.112-7.407-3.112-13.223c0-4.431,0.907-8.768,2.723-13.015c1.814-4.244,4.148-8.029,7.001-11.354
	c2.853-3.322,5.995-5.998,9.433-8.029c3.435-2.029,6.772-3.047,10.015-3.047c2.981,0,5.348,0.855,7.099,2.562
	c1.75,1.709,2.625,3.807,2.625,6.299c0,1.755-0.244,3.348-0.73,4.777c-0.484,1.432-1.117,2.631-1.895,3.6
	c-0.778,0.969-1.653,1.709-2.626,2.215c-0.972,0.508-1.944,0.762-2.917,0.762c-0.843,0-1.589-0.091-2.236-0.277
	c0.453-2.122,0.939-4.291,1.459-6.507c0.518-2.216,0.777-4.431,0.777-6.646c0-1.568-0.26-2.814-0.777-3.738
	c-0.52-0.922-1.232-1.385-2.14-1.385c-1.687,0-3.598,0.947-5.736,2.838c-2.14,1.893-4.149,4.431-6.029,7.615
	c-1.881,3.185-3.468,6.832-4.765,10.938c-1.297,4.108-1.944,8.377-1.944,12.807c0,3.51,0.744,6.486,2.236,8.931
	c1.49,2.446,3.564,3.669,6.224,3.669c3.175,0,6.335-1.246,9.48-3.738c3.143-2.492,6.125-5.514,8.945-9.068
	c2.82-3.553,5.396-7.245,7.73-11.076c2.332-3.829,4.311-7.131,5.932-9.899L314.896,430.506z"/>
<path fill="#E9D718" d="M350.581,398.938c0.129,1.108,0.274,2.562,0.438,4.361c0.161,1.8,0.243,3.669,0.243,5.607
	c0,4.247-0.423,8.331-1.265,12.253c-0.843,3.924-2.123,7.386-3.841,10.385c-1.718,3-3.84,5.377-6.368,7.129
	c-2.528,1.756-5.479,2.631-8.849,2.631c-2.464,0-4.667-0.575-6.612-1.73c-1.944-1.152-3.582-2.77-4.91-4.846
	c-1.329-2.076-2.351-4.545-3.062-7.407c-0.715-2.86-1.07-5.999-1.07-9.415c0-5.074,0.745-9.875,2.236-14.398
	c1.491-4.521,3.501-8.675,6.029-12.461c2.528-3.784,5.46-7.221,8.8-10.315c3.338-3.091,6.854-5.698,10.55-7.822
	c3.695-2.122,7.471-3.76,11.328-4.915c3.855-1.153,7.535-1.731,11.036-1.731c4.342,0,8.394,0.554,12.154,1.662
	c3.759,1.107,7.453,2.724,11.085,4.846c2.528-1.568,5.104-2.998,7.729-4.292c2.626-1.292,5.332-2.029,8.119-2.215l0.195,0.831
	c-0.909,0-2.011,0.231-3.307,0.692c-1.297,0.463-2.61,1.062-3.938,1.8c-1.33,0.74-2.577,1.546-3.744,2.423
	c-1.167,0.878-2.042,1.73-2.625,2.561c2.463,2.032,4.439,4.638,5.932,7.823c1.49,3.185,2.236,6.854,2.236,11.007
	c0,3.97-0.697,7.361-2.091,10.176c-1.395,2.817-3.145,5.171-5.251,7.062c-2.107,1.894-4.409,3.37-6.903,4.431
	c-2.496,1.062-4.879,1.869-7.146,2.423l-0.098,0.276c2.009,0.371,3.97,0.81,5.883,1.316c1.911,0.508,3.63,1.362,5.153,2.561
	c1.522,1.201,2.738,2.887,3.646,5.054c0.907,2.17,1.361,5.054,1.361,8.653c0,5.078-0.763,9.67-2.285,13.775
	c-1.523,4.109-3.549,7.594-6.077,10.454c-2.528,2.862-5.382,5.054-8.557,6.576c-3.177,1.523-6.418,2.284-9.724,2.284
	c-1.361,0-2.756-0.255-4.181-0.761c-1.427-0.509-2.708-1.271-3.841-2.285c-1.136-1.015-2.076-2.306-2.82-3.876
	c-0.746-1.568-1.118-3.414-1.118-5.539c0-2.398,0.583-4.475,1.75-6.23c1.167-1.752,2.592-2.63,4.278-2.63
	c1.945,0,3.662,0.924,5.153,2.769c-1.297,1.107-2.253,2.492-2.868,4.154c-0.616,1.661-0.924,3.509-0.924,5.538
	c0,2.401,0.453,4.201,1.361,5.399c0.907,1.2,2.203,1.8,3.89,1.8c2.528,0,4.828-0.99,6.903-2.977
	c2.074-1.983,3.824-4.476,5.251-7.477c1.425-2.999,2.528-6.3,3.306-9.899c0.778-3.6,1.167-7.014,1.167-10.246
	c0-6.092-1.118-10.543-3.354-13.359c-2.236-2.814-5.688-4.223-10.355-4.223l0.098-1.108c2.397-0.184,4.765-0.807,7.098-1.869
	c2.334-1.06,4.425-2.583,6.271-4.569c1.848-1.983,3.354-4.476,4.521-7.477c1.167-2.998,1.751-6.576,1.751-10.729
	c0-2.583-0.325-5.053-0.973-7.407c-0.648-2.354-1.687-4.407-3.111-6.161c-3.242,3.693-6.159,8.446-8.752,14.261
	c-2.593,5.814-5.17,12.023-7.729,18.621c-2.562,6.602-5.235,13.246-8.022,19.938c-2.788,6.693-5.979,12.738-9.577,18.138
	s-7.764,9.784-12.495,13.153c-4.732,3.368-10.307,5.053-16.725,5.053c-2.075,0-4.101-0.394-6.077-1.177
	c-1.978-0.785-3.743-1.938-5.299-3.461c-1.556-1.523-2.82-3.393-3.792-5.607c-0.973-2.216-1.459-4.753-1.459-7.614
	c0-2.677,0.501-4.984,1.507-6.924c1.005-1.938,2.544-2.906,4.619-2.906c1.49,0,2.674,0.646,3.549,1.938
	c0.875,1.294,1.312,2.908,1.312,4.846c0,1.755-0.389,3.232-1.166,4.431c-0.778,1.2-1.557,1.894-2.334,2.077
	c-0.065,0.369-0.098,0.924-0.098,1.661c0,3.786,0.858,6.576,2.577,8.376c1.717,1.801,4.229,2.7,7.535,2.7
	c4.408,0,8.28-1.707,11.62-5.123c3.338-3.413,6.4-7.868,9.188-13.36c2.786-5.49,5.478-11.63,8.07-18.414s5.363-13.521,8.314-20.214
	c2.948-6.691,6.237-13.015,9.869-18.968c3.629-5.954,7.876-10.775,12.737-14.468c-2.593-2.86-5.575-4.96-8.945-6.3
	c-3.371-1.337-6.709-2.007-10.016-2.007c-4.604,0-9.367,1.155-14.293,3.461c-4.928,2.308-9.417,5.655-13.468,10.038
	c-4.052,4.385-7.374,9.692-9.966,15.922c-2.594,6.229-3.89,13.27-3.89,21.114c0,2.215,0.21,4.523,0.632,6.922
	c0.421,2.401,1.085,4.593,1.993,6.576c0.907,1.986,2.042,3.624,3.403,4.916c1.361,1.293,2.949,1.938,4.765,1.938
	c2.528,0,4.779-0.807,6.758-2.422c1.977-1.614,3.679-3.784,5.104-6.508c1.426-2.722,2.512-5.86,3.258-9.415
	c0.744-3.552,1.118-7.221,1.118-11.007c0-2.215-0.065-4.13-0.194-5.746c-0.131-1.613-0.26-3.16-0.389-4.638L350.581,398.938z"/>
<path fill="#E9D718" d="M390.834,466.227c3.307-8.121,6.661-16.199,10.064-24.229c3.403-8.031,6.789-16.199,10.161-24.507
	l11.085-0.554l-12.836,25.752l0.195,0.277c2.462-4.338,4.65-7.822,6.562-10.453s3.581-4.777,5.008-6.438
	c1.426-1.661,2.626-2.929,3.598-3.808c0.973-0.876,1.686-1.637,2.14-2.284c0.712-1.015,1.376-1.821,1.993-2.423
	c0.615-0.6,1.345-1.061,2.188-1.385c0.842-0.322,1.863-0.529,3.063-0.623c1.198-0.091,2.706-0.184,4.521-0.277
	c-1.232,2.492-2.367,5.102-3.403,7.823c-1.038,2.724-1.556,5.655-1.556,8.792c0,3.969,1.393,5.953,4.181,5.953
	c0.907,0,1.799-0.277,2.674-0.83c0.875-0.555,1.702-1.246,2.479-2.077c0.778-0.831,1.522-1.731,2.236-2.7
	c0.713-0.969,1.361-1.869,1.945-2.699l0.389,0.691c-1.815,3.232-3.955,5.863-6.418,7.893c-2.464,2.031-5.153,3.045-8.07,3.045
	c-2.593,0-4.635-0.969-6.126-2.906c-1.491-1.939-2.236-4.799-2.236-8.584c0-2.4,0.486-4.66,1.459-6.785l-0.194-0.276
	c-2.723,2.585-5.316,5.585-7.779,8.999c-2.464,3.416-4.749,7.016-6.854,10.799c-2.107,3.787-4.053,7.685-5.835,11.699
	c-1.783,4.016-3.388,7.916-4.812,11.7L390.834,466.227z"/>
<path fill="#E9D718" d="M474.942,418.322l10.112-0.831c-0.583,1.661-1.427,3.669-2.528,6.022c-1.103,2.354-2.301,4.894-3.598,7.615
	c-1.297,2.724-2.609,5.538-3.938,8.445c-1.329,2.908-2.545,5.725-3.646,8.445c-1.103,2.725-1.993,5.262-2.674,7.615
	s-1.021,4.361-1.021,6.022c0,2.309,0.811,3.462,2.432,3.462c1.556,0,3.661-1.292,6.32-3.877c2.657-2.583,5.445-5.999,8.362-10.246
	c1.23-1.752,2.479-3.645,3.743-5.676c1.264-2.029,2.479-4.037,3.646-6.023c1.167-1.982,2.236-3.828,3.209-5.537
	c0.972-1.707,1.75-3.115,2.333-4.223l0.681,0.553c-1.687,3.232-3.631,6.809-5.834,10.73c-2.204,3.924-4.861,8.1-7.974,12.53
	c-3.111,4.431-6.174,8.054-9.188,10.868c-3.014,2.814-6.014,4.223-8.994,4.223c-2.075,0-3.68-0.761-4.813-2.284
	c-1.135-1.522-1.701-3.392-1.701-5.607c0-0.737,0.032-1.43,0.098-2.077c0.063-0.645,0.16-1.152,0.291-1.522h-0.194
	c-2.01,3.231-4.278,5.953-6.807,8.169c-2.528,2.215-5.25,3.322-8.168,3.322c-1.556,0-2.885-0.415-3.986-1.246
	c-1.103-0.83-1.993-1.96-2.674-3.392c-0.681-1.43-1.184-3.046-1.507-4.846c-0.324-1.8-0.486-3.669-0.486-5.607
	c0-4.521,0.875-9.045,2.625-13.568c1.75-4.521,3.953-8.606,6.612-12.253c2.657-3.646,5.623-6.598,8.896-8.861
	c3.273-2.261,6.401-3.393,9.384-3.393c2.269,0,4.051,0.693,5.348,2.078c1.296,1.384,2.365,3.554,3.209,6.506L474.942,418.322z
	 M445.771,453.766c0,2.678,0.308,5.008,0.924,6.992c0.615,1.985,1.929,2.977,3.938,2.977c1.361-0.091,2.786-0.899,4.278-2.423
	c1.49-1.522,2.933-3.438,4.327-5.745c1.393-2.307,2.723-4.868,3.986-7.685c1.264-2.815,2.365-5.653,3.306-8.515
	c0.939-2.86,1.686-5.561,2.237-8.1c0.55-2.538,0.826-4.684,0.826-6.438c0-2.492-0.325-4.431-0.973-5.815
	c-0.648-1.384-1.913-2.076-3.792-2.076c-1.492,0-2.999,0.646-4.521,1.938c-1.523,1.294-2.982,3.001-4.376,5.122
	c-1.395,2.125-2.723,4.5-3.986,7.131s-2.351,5.33-3.257,8.1c-0.909,2.77-1.621,5.424-2.14,7.961
	C446.03,449.729,445.771,451.92,445.771,453.766z"/>
<path fill="#E9D718" d="M510.725,417.491c-3.048,6.832-5.673,12.669-7.876,17.515c-2.204,4.846-4.003,8.978-5.396,12.391
	c-1.395,3.416-2.431,6.209-3.111,8.377c-0.681,2.17-1.021,3.945-1.021,5.33c0,1.108,0.146,2.008,0.438,2.7
	c0.292,0.692,0.729,1.038,1.313,1.038c1.296,0,3.126-1.06,5.493-3.185c2.366-2.122,5.331-5.767,8.897-10.938
	c1.425-2.122,2.819-4.223,4.181-6.3c1.361-2.076,2.641-4.084,3.841-6.022c1.199-1.938,2.269-3.69,3.209-5.261
	c0.938-1.568,1.701-2.814,2.285-3.738l0.875,0.83c-0.778,1.479-1.735,3.163-2.868,5.054c-1.135,1.894-2.351,3.877-3.646,5.954
	c-1.298,2.076-2.625,4.131-3.986,6.16c-1.361,2.031-2.691,3.971-3.987,5.815c-3.76,5.354-6.985,9.093-9.675,11.215
	c-2.69,2.122-5.17,3.185-7.438,3.185c-2.139,0-3.792-0.831-4.959-2.492c-1.167-1.662-1.75-3.829-1.75-6.508
	c0-1.845,0.243-3.76,0.729-5.746c0.486-1.982,1.312-4.451,2.479-7.406c1.166-2.953,2.723-6.622,4.667-11.008
	c1.944-4.383,4.376-9.806,7.293-16.268L510.725,417.491z M516.364,386.755c1.23,0,2.317,0.647,3.258,1.938
	c0.938,1.293,1.41,2.816,1.41,4.569c0,1.847-0.521,3.531-1.557,5.053c-1.037,1.522-2.204,2.284-3.5,2.284
	c-1.427,0-2.659-0.529-3.695-1.592c-1.037-1.061-1.556-2.652-1.556-4.776c0-2.123,0.567-3.898,1.702-5.331
	C513.56,387.471,514.872,386.755,516.364,386.755z"/>
<path fill="#E9D718" d="M556.618,369.448l-30.045,68.118c-2.528,5.815-4.538,10.64-6.029,14.469
	c-1.491,3.831-2.236,6.946-2.236,9.346c0,2.492,0.713,3.738,2.14,3.738c1.361,0,3.209-1.061,5.542-3.185
	c2.334-2.122,4.828-5.075,7.487-8.86c2.463-3.508,4.894-7.246,7.293-11.215c2.397-3.968,4.73-8.076,7.001-12.322l0.875,0.415
	c-0.778,1.478-1.67,3.139-2.674,4.984c-1.006,1.847-2.059,3.716-3.16,5.606c-1.104,1.894-2.222,3.787-3.355,5.678
	c-1.135,1.893-2.253,3.623-3.354,5.191c-3.76,5.447-7.083,9.508-9.966,12.184c-2.886,2.677-5.883,4.016-8.995,4.016
	c-4.408,0-6.611-2.77-6.611-8.308c0-2.583,0.665-5.837,1.993-9.761c1.328-3.922,3.387-9.207,6.175-15.853l27.128-63.412
	L556.618,369.448z"/>
<path fill="#E9D718" d="M581.801,369.448l-30.045,68.118c-2.528,5.815-4.538,10.64-6.029,14.469
	c-1.491,3.831-2.236,6.946-2.236,9.346c0,2.492,0.713,3.738,2.14,3.738c1.361,0,3.209-1.061,5.542-3.185
	c2.334-2.122,4.828-5.075,7.487-8.86c2.463-3.508,4.894-7.246,7.293-11.215c2.397-3.968,4.73-8.076,7.001-12.322l0.875,0.415
	c-0.778,1.478-1.67,3.139-2.674,4.984c-1.006,1.847-2.059,3.716-3.16,5.606c-1.104,1.894-2.222,3.787-3.355,5.678
	c-1.135,1.893-2.253,3.623-3.354,5.191c-3.76,5.447-7.083,9.508-9.966,12.184c-2.886,2.677-5.883,4.016-8.995,4.016
	c-4.408,0-6.611-2.77-6.611-8.308c0-2.583,0.665-5.837,1.993-9.761c1.328-3.922,3.387-9.207,6.175-15.853l27.128-63.412
	L581.801,369.448z"/>
<path fill="#E9D718" d="M613.693,429.952c-2.011,3.876-4.166,7.708-6.467,11.491c-2.302,3.786-5.041,7.754-8.216,11.907
	c-4.473,5.724-8.769,9.67-12.884,11.838c-4.117,2.167-7.99,3.253-11.62,3.253c-3.694,0-6.611-1.57-8.751-4.707
	c-2.139-3.137-3.209-7.199-3.209-12.184c0-4.431,0.939-8.813,2.82-13.153c1.879-4.337,4.245-8.214,7.098-11.63
	c2.853-3.414,5.98-6.183,9.384-8.307c3.403-2.123,6.627-3.186,9.675-3.186c2.786,0,4.959,0.762,6.515,2.285s2.334,3.669,2.334,6.438
	c0,2.216-0.535,4.247-1.604,6.092c-1.069,1.848-2.448,3.51-4.133,4.984c-1.687,1.479-3.582,2.77-5.688,3.877
	s-4.197,2.077-6.271,2.908c-2.075,0.83-4.02,1.522-5.834,2.076c-1.815,0.555-3.306,1.018-4.473,1.385
	c-0.325,1.848-0.486,3.509-0.486,4.984c0,3.97,0.778,7.199,2.334,9.691s3.727,3.738,6.515,3.738c2.723,0,5.72-1.153,8.994-3.461
	c3.272-2.307,6.563-5.677,9.869-10.107c2.528-3.414,4.959-6.992,7.293-10.73c2.333-3.738,4.375-7.221,6.126-10.453L613.693,429.952z
	 M592.593,420.537c0-1.291-0.243-2.215-0.729-2.77c-0.485-0.553-1.118-0.83-1.896-0.83c-1.621,0-3.371,0.969-5.251,2.908
	c-1.881,1.938-3.646,4.314-5.299,7.129c-1.653,2.817-3.112,5.77-4.376,8.861c-1.264,3.094-2.091,5.793-2.479,8.1
	c2.657-0.737,5.186-1.96,7.584-3.669c2.397-1.706,4.521-3.646,6.369-5.815c1.848-2.167,3.321-4.476,4.425-6.922
	C592.041,425.084,592.593,422.752,592.593,420.537z"/>
</svg>
